<?xml version="1.0" encoding="utf-8"?>
<!-- Generator: Adobe Illustrator 24.0.2, SVG Export Plug-In . SVG Version: 6.00 Build 0)  -->
<svg version="1.1"
	 id="svg831" xmlns:cc="http://creativecommons.org/ns#" xmlns:dc="http://purl.org/dc/elements/1.1/" xmlns:rdf="http://www.w3.org/1999/02/22-rdf-syntax-ns#" xmlns:svg="http://www.w3.org/2000/svg"
	 xmlns="http://www.w3.org/2000/svg" xmlns:xlink="http://www.w3.org/1999/xlink" x="0px" y="0px" viewBox="0 0 1000 1000"
	 style="enable-background:new 0 0 1000 1000;" xml:space="preserve">
<g id="g829" style="fill: #4caf50;">
	<path id="path827" class="st0" d="M500,10c-644.1,11-644,969.1,0,980C1144.1,979,1144,20.9,500,10z M435.3,743.6
		c-119.6,115.3-294.5-59.1-179-178.9c86.3-80,195.1-250.6,317.3-113.7l-0.1,0.1c14.4,25.5-16,55.5-41.3,40.8
		c-0.8,0.8-8.7-7.1-13-11.3l0,0c-25.8-25.8-67.3-26-93.1-0.2l-127,127c-25.8,25.8-25.8,67.5,0,93.3l0,0
		c65.2,62.4,126.2-38.8,169.7-76.4c26.5,13,57.7,13.4,84.5,1.1L435.3,743.6z M743.6,435.3c-86.3,80.2-195,250.6-317.2,113.7l0.1-0.1
		c-14.4-25.5,16-55.5,41.3-40.8c0.8-0.8,8.7,7.1,13,11.3l0,0c25.8,25.8,67.3,26,93.1,0.2l127-127c25.8-25.8,25.8-67.5,0-93.3l0,0
		c-65.1-62.4-126.3,38.8-169.9,76.3c-26.4-12.9-57.7-13.4-84.5-1.1l118.1-118.1C684.2,141,859.3,315.6,743.6,435.3z"/>
</g>
</svg>
